<?xml version="1.0" standalone="no"?>
<!DOCTYPE svg PUBLIC "-//W3C//DTD SVG 20010904//EN"
 "http://www.w3.org/TR/2001/REC-SVG-20010904/DTD/svg10.dtd">
<svg version="1.0" xmlns="http://www.w3.org/2000/svg"
 width="700.000000pt" height="700.000000pt" viewBox="0 0 700.000000 700.000000"
 preserveAspectRatio="xMidYMid meet">
<metadata>
Created by potrace 1.11, written by Peter Selinger 2001-2013
</metadata>
<g transform="translate(0.000000,700.000000) scale(0.100000,-0.100000)"
fill="#000000" stroke="none">
<path d="M3153 6985 c-68 -8 -158 -21 -200 -30 -43 -8 -89 -17 -103 -20 -23
-4 -80 -15 -175 -35 -106 -23 -413 -124 -501 -166 -28 -13 -54 -24 -58 -24 -8
0 -222 -107 -281 -140 -367 -206 -660 -440 -933 -745 -169 -188 -368 -482
-491 -724 -258 -509 -381 -1022 -381 -1596 0 -479 83 -903 261 -1337 65 -159
194 -410 235 -459 17 -21 42 -60 55 -86 104 -217 500 -660 769 -861 41 -31 77
-59 80 -62 10 -13 197 -139 290 -195 95 -58 361 -195 378 -195 4 0 35 -13 68
-29 32 -15 84 -36 114 -46 30 -10 66 -24 80 -30 30 -16 239 -77 335 -99 39 -9
100 -23 136 -31 197 -45 344 -58 679 -59 348 -1 411 5 693 60 763 150 1479
576 1981 1178 84 101 252 330 269 366 4 8 25 44 48 80 109 171 254 487 316
685 8 28 19 59 24 70 9 22 26 81 39 135 5 19 16 64 25 100 71 281 99 553 92
883 -3 139 -10 286 -16 327 -25 168 -34 219 -53 310 -27 126 -34 154 -53 225
-9 33 -19 70 -22 83 -3 12 -9 25 -14 28 -5 3 -9 15 -9 27 0 12 -9 47 -21 77
-12 30 -23 65 -26 78 -3 12 -9 25 -14 28 -5 3 -9 12 -9 19 0 15 -24 70 -85
200 -18 39 -41 88 -51 110 -10 22 -20 42 -23 45 -4 3 -19 32 -36 65 -16 33
-37 71 -46 85 -74 114 -95 146 -98 155 -6 16 -55 80 -63 83 -5 2 -8 9 -8 16 0
7 -11 23 -25 36 -14 13 -25 28 -25 33 0 5 -12 24 -27 41 -16 18 -41 50 -58 72
-16 21 -66 78 -110 125 -44 48 -101 110 -127 138 -26 28 -51 51 -55 51 -5 0
-44 36 -88 80 -44 44 -84 80 -90 80 -6 0 -29 18 -50 40 -21 22 -45 40 -51 40
-7 0 -14 3 -16 8 -5 12 -95 82 -106 82 -5 0 -17 10 -28 21 -10 12 -28 25 -39
30 -26 12 -54 30 -79 51 -11 10 -29 21 -40 24 -12 4 -27 12 -35 18 -32 26
-355 196 -372 196 -5 0 -32 11 -61 24 -29 13 -73 31 -98 41 -25 9 -53 21 -62
26 -10 5 -27 9 -37 9 -11 0 -22 4 -25 9 -3 5 -22 12 -42 16 -20 3 -44 10 -53
14 -24 13 -109 38 -171 51 -30 7 -66 16 -80 20 -22 7 -84 19 -255 50 -206 37
-672 50 -892 25z m169 -37 c17 17 311 16 338 0 15 -10 24 -9 44 1 21 11 28 12
41 1 9 -7 27 -10 45 -6 17 3 30 1 30 -4 0 -6 9 -10 20 -10 11 0 20 -4 20 -10
0 -5 11 -10 24 -10 14 0 28 5 31 10 3 6 19 10 36 10 16 0 29 -4 29 -10 0 -5
10 -10 23 -10 13 0 27 -4 33 -9 5 -5 59 -11 121 -13 71 -2 117 -8 125 -16 6
-6 24 -12 39 -12 15 0 30 -4 33 -9 3 -5 26 -12 51 -15 24 -4 47 -11 50 -17 4
-5 17 -9 31 -9 13 0 24 -4 24 -10 0 -5 15 -10 34 -10 19 0 38 -5 41 -10 4 -6
12 -10 18 -8 16 2 97 -35 97 -44 0 -5 11 -8 24 -8 13 0 29 -7 36 -15 7 -8 23
-15 35 -15 13 0 36 -7 51 -15 16 -8 39 -15 52 -15 12 0 22 -4 22 -10 0 -5 6
-10 13 -10 8 0 22 -9 32 -20 10 -11 34 -23 54 -26 20 -4 38 -10 41 -13 10 -12
50 -31 64 -31 8 0 21 -6 28 -12 23 -22 99 -58 109 -52 6 3 25 -10 43 -30 18
-20 37 -36 43 -36 5 0 18 -9 28 -20 10 -11 27 -20 37 -20 11 0 38 -18 60 -40
23 -22 48 -40 57 -40 8 0 34 -18 57 -41 23 -23 53 -46 65 -53 13 -6 24 -18 24
-26 0 -9 11 -16 26 -18 16 -2 47 -26 82 -62 31 -32 66 -62 77 -65 11 -3 20
-13 20 -22 0 -16 38 -52 55 -53 6 0 17 -10 25 -22 27 -39 73 -89 77 -84 9 9
52 -42 59 -68 6 -24 33 -46 77 -62 9 -3 17 -15 17 -25 0 -12 -5 -16 -15 -13
-8 4 -15 9 -15 13 0 4 -16 13 -35 21 -19 8 -35 20 -35 27 0 7 -9 13 -20 13
-22 0 -24 1 -87 55 -24 21 -57 39 -77 42 -20 3 -36 10 -36 14 0 5 -6 9 -14 9
-7 0 -19 7 -26 15 -7 8 -23 15 -36 15 -13 0 -24 5 -24 10 0 6 -9 10 -20 10
-11 0 -20 3 -20 8 0 15 -62 34 -96 29 -19 -3 -34 -2 -34 4 0 5 -11 9 -24 9
-14 0 -28 5 -31 10 -3 6 -19 10 -35 10 -16 0 -32 5 -35 10 -3 6 -27 10 -52 10
-30 0 -53 6 -66 18 -15 12 -21 14 -24 5 -5 -15 -69 -17 -78 -3 -9 14 -48 12
-64 -2 -11 -10 -14 -10 -18 0 -6 15 -134 17 -149 2 -6 -6 -71 -13 -144 -15
-74 -3 -139 -10 -144 -15 -6 -6 -22 -10 -37 -10 -15 0 -31 -4 -34 -10 -3 -5
-17 -10 -30 -10 -13 0 -25 -6 -28 -12 -4 -10 -7 -10 -18 0 -20 18 -29 15 -29
-12 0 -30 -19 -45 -65 -53 -21 -3 -58 -17 -84 -29 -25 -13 -52 -24 -58 -24 -7
0 -13 -4 -13 -10 0 -5 -6 -10 -13 -10 -8 0 -22 -9 -32 -20 -11 -12 -35 -28
-54 -38 -20 -9 -42 -22 -49 -29 -7 -7 -18 -13 -23 -13 -12 0 -29 -18 -45 -45
-6 -11 -20 -22 -30 -23 -21 -4 -64 -40 -64 -54 0 -18 -36 -48 -57 -48 -15 0
-27 -8 -33 -22 -21 -50 -47 -81 -73 -91 -9 -4 -20 -15 -24 -24 -4 -10 -15 -24
-25 -31 -10 -7 -16 -17 -13 -21 2 -5 -4 -16 -15 -26 -11 -10 -20 -26 -20 -37
0 -10 -16 -34 -35 -52 -19 -19 -35 -43 -35 -53 0 -11 -5 -24 -12 -31 -7 -7 -8
-12 -3 -12 4 0 -1 -8 -11 -17 -11 -10 -28 -35 -37 -55 -10 -20 -22 -40 -27
-43 -6 -3 -10 -28 -10 -56 0 -27 -4 -49 -10 -49 -5 0 -10 -11 -10 -24 0 -13
-7 -29 -15 -36 -8 -7 -15 -19 -15 -26 0 -8 -7 -14 -15 -14 -10 0 -15 11 -15
35 0 19 -4 35 -9 35 -4 0 -11 26 -15 58 -7 59 -25 112 -38 112 -5 0 -8 16 -8
35 0 24 -5 35 -15 35 -8 0 -15 7 -15 15 0 8 -4 15 -10 15 -5 0 -10 16 -10 35
0 19 -4 35 -9 35 -5 0 -12 8 -15 18 -10 27 -31 61 -55 86 -11 12 -21 30 -21
39 0 9 -18 34 -41 54 -35 32 -60 69 -63 95 -1 3 -20 25 -43 47 -24 22 -43 44
-43 48 0 12 -63 73 -76 73 -6 0 -14 9 -17 20 -3 11 -13 23 -23 27 -26 10 -54
35 -54 49 0 18 -32 42 -70 51 -21 5 -39 18 -45 31 -7 15 -19 22 -39 22 -16 0
-36 8 -45 18 -19 20 -63 44 -77 41 -14 -3 -47 13 -64 32 -9 9 -38 20 -65 24
-28 4 -59 15 -70 25 -14 13 -46 20 -107 25 -49 4 -88 11 -88 16 0 5 -16 9 -35
9 -19 0 -35 5 -35 10 0 6 -38 10 -94 10 -53 0 -98 4 -101 10 -3 6 -21 10 -40
10 -19 0 -37 -4 -40 -10 -4 -6 -53 -10 -115 -10 -62 0 -111 -4 -115 -10 -3 -5
-24 -10 -45 -10 -21 0 -40 -4 -42 -10 -1 -5 -40 -12 -85 -16 -46 -4 -83 -10
-83 -13 0 -8 -48 -28 -87 -36 -18 -4 -33 -10 -33 -13 0 -8 -77 -45 -95 -46
-25 -2 -93 -43 -123 -73 -22 -22 -42 -33 -62 -33 -19 0 -30 -5 -30 -14 0 -7
-8 -16 -18 -20 -9 -3 -23 -9 -29 -12 -26 -12 -12 20 27 62 22 24 40 53 40 64
0 13 7 20 19 20 10 0 21 7 25 15 3 8 15 15 26 15 13 0 20 7 20 19 0 10 8 22
17 25 38 14 75 38 81 54 11 31 55 72 77 72 12 0 42 21 70 50 27 28 55 50 62
50 7 0 13 5 13 10 0 6 8 10 18 10 9 0 23 9 30 20 7 12 16 18 21 16 10 -6 35
21 44 47 4 11 17 17 38 17 22 0 40 10 65 35 18 19 40 35 49 35 8 0 15 4 15 9
0 9 37 24 56 22 5 -1 19 7 30 16 25 22 53 40 79 52 12 5 27 16 34 24 7 9 26
19 42 22 16 4 29 11 29 16 0 5 15 9 33 9 21 0 38 7 47 20 8 10 26 22 42 25 15
4 30 11 33 16 4 5 16 9 29 9 13 0 36 6 52 14 16 7 44 20 62 27 17 8 32 17 32
21 0 5 11 8 24 8 14 0 28 5 31 10 4 6 10 8 15 5 5 -3 11 -1 15 5 3 5 26 10 50
10 24 0 47 5 50 10 3 6 17 10 31 10 13 0 24 4 24 9 0 5 23 12 50 16 28 4 50
11 50 16 0 5 15 9 34 9 19 0 36 5 38 12 3 7 43 13 111 16 59 2 107 9 107 13 0
5 9 9 20 9 11 0 20 5 20 10 0 6 22 10 48 10 27 0 52 3 55 6 4 4 44 6 91 5 53
-1 87 2 91 9 5 8 11 8 21 -1 11 -9 18 -9 26 -1z m-1242 -888 c62 0 111 -4 115
-10 3 -5 19 -10 35 -10 16 0 32 -5 35 -10 4 -6 15 -8 26 -5 11 4 19 2 19 -4 0
-6 20 -11 45 -11 25 0 45 -4 45 -10 0 -5 8 -10 19 -10 10 0 32 -7 47 -15 16
-8 44 -15 63 -15 20 0 40 -7 50 -18 9 -11 33 -22 54 -26 23 -4 37 -12 37 -22
0 -8 10 -19 23 -24 17 -7 9 -9 -35 -9 -31 -1 -60 4 -63 9 -3 6 -17 10 -30 10
-13 0 -25 5 -27 12 -5 13 -68 -11 -68 -26 0 -4 -7 -3 -16 5 -12 10 -20 10 -35
1 -10 -7 -50 -13 -89 -13 -62 -1 -73 -4 -89 -25 -10 -13 -26 -24 -35 -24 -9 0
-16 -4 -16 -9 0 -5 -8 -12 -17 -15 -49 -18 -124 -80 -120 -100 1 -6 -3 -10 -9
-9 -23 4 -152 -139 -170 -189 -3 -10 -10 -18 -15 -18 -5 0 -9 -11 -9 -25 0
-14 -4 -25 -9 -25 -5 0 -12 -11 -15 -25 -4 -14 -11 -25 -16 -25 -6 0 -10 -18
-10 -41 0 -32 -4 -42 -20 -46 -21 -6 -27 -28 -10 -38 15 -9 13 -145 -2 -145
-20 0 -48 32 -48 54 0 12 -11 30 -25 40 -14 10 -25 27 -25 37 0 12 -7 19 -20
19 -11 0 -20 4 -20 9 0 4 -15 12 -32 17 -21 6 -38 20 -47 38 -11 24 -17 27
-42 22 -16 -3 -29 -1 -29 4 0 6 -5 10 -12 10 -6 0 -21 9 -33 20 -13 12 -42 22
-80 26 -33 4 -62 10 -65 13 -21 25 -90 41 -90 21 0 -6 -9 -5 -21 2 -17 10 -23
10 -26 1 -3 -9 -30 -13 -84 -13 -43 0 -79 -4 -79 -9 0 -4 -28 -12 -61 -15 -34
-4 -70 -11 -80 -17 -11 -5 -28 -13 -39 -19 -11 -5 -27 -10 -36 -10 -17 0 -74
-53 -74 -69 0 -6 -7 -11 -15 -11 -8 0 -15 -4 -15 -10 0 -5 -10 -10 -22 -10
-22 0 -68 -36 -68 -53 0 -5 -15 -24 -33 -41 -17 -17 -41 -49 -52 -71 -23 -45
-38 -51 -43 -17 -2 12 1 22 7 22 6 0 11 11 11 24 0 13 7 29 15 36 8 7 15 25
15 39 0 16 10 37 25 51 14 13 25 29 25 35 0 7 9 20 20 30 11 10 20 24 20 32 0
7 7 16 15 19 8 4 15 15 15 27 0 22 36 67 54 67 6 0 21 23 33 50 12 28 27 50
32 50 12 0 62 49 77 76 6 10 23 20 38 22 14 2 26 7 26 12 0 12 82 89 96 90 5
0 25 16 44 35 19 19 39 35 45 35 7 0 20 9 29 19 10 11 23 18 30 15 7 -3 21 4
31 16 10 11 24 20 30 20 7 0 18 7 25 15 7 8 29 15 50 15 24 0 43 7 54 19 10
11 31 23 47 26 16 4 29 11 29 16 0 5 16 9 35 9 19 0 35 4 35 9 0 14 50 29 119
35 24 2 47 9 51 16 5 8 52 11 169 11 122 -1 161 2 162 11 0 10 2 10 6 1 3 -9
36 -13 113 -13z m3587 -272 c4 -7 8 -15 9 -18 2 -11 16 -46 25 -62 6 -12 3
-28 -11 -53 -11 -19 -17 -35 -14 -35 3 0 -6 -11 -20 -25 -39 -39 -93 -35 -136
10 -19 19 -38 35 -42 35 -4 0 -8 -15 -8 -34 0 -34 0 -34 64 -55 16 -6 15 -8
-10 -21 -45 -22 -104 -82 -104 -105 0 -20 -35 -51 -43 -37 -3 4 -8 31 -12 59
-4 29 -11 55 -16 59 -12 7 -11 71 1 79 6 3 10 13 10 22 0 36 59 133 82 133 4
0 8 -21 8 -46 0 -55 23 -57 28 -3 5 62 12 79 32 79 11 0 20 4 20 9 0 19 125
27 137 9z m103 -18 c8 -11 20 -20 26 -20 15 0 84 -66 84 -80 0 -6 -28 -10 -65
-10 -62 0 -65 1 -65 24 0 13 -7 37 -15 52 -8 16 -15 35 -15 42 0 19 34 14 50
-8z m148 -32 c-2 -8 8 -13 24 -13 15 0 33 -6 39 -12 7 -7 17 -13 23 -13 5 0
20 -10 32 -21 13 -12 34 -27 46 -33 13 -6 32 -30 43 -54 11 -23 25 -42 31 -42
5 0 16 -15 24 -34 7 -19 21 -37 32 -39 10 -3 21 -13 25 -24 4 -10 16 -26 27
-36 14 -13 21 -34 24 -77 2 -33 8 -60 13 -60 5 0 9 -9 9 -19 0 -11 5 -21 12
-23 7 -3 11 -42 12 -119 1 -95 -1 -114 -14 -114 -10 0 -16 12 -18 35 -1 19 -7
44 -12 55 -5 11 -11 37 -15 58 -4 26 -13 41 -28 46 -12 5 -35 23 -51 40 -20
21 -42 32 -73 37 -24 3 -46 10 -49 15 -7 12 -54 11 -54 -1 0 -5 -7 -10 -15
-10 -8 0 -15 5 -15 10 0 6 -22 10 -50 10 -54 0 -68 17 -27 35 12 6 23 21 25
35 2 14 10 39 18 57 8 17 14 38 14 46 0 9 5 19 10 22 6 3 10 15 10 26 0 10 -4
19 -10 19 -15 0 -12 58 3 63 14 5 -29 57 -49 57 -7 0 -15 13 -19 30 -4 16 -11
32 -16 35 -14 9 -11 25 6 25 8 0 14 -6 13 -12z m-618 -58 c0 -11 -4 -20 -10
-20 -5 0 -10 -9 -10 -20 0 -11 -4 -20 -10 -20 -14 0 -13 -147 1 -156 8 -4 7
-9 -2 -15 -9 -6 -10 -12 -4 -16 6 -5 16 -21 24 -38 7 -16 17 -38 22 -48 7 -12
5 -22 -5 -32 -17 -17 -62 -20 -71 -5 -7 12 -55 14 -55 3 0 -11 -50 -33 -76
-33 -12 0 -38 -18 -60 -40 -22 -22 -47 -40 -56 -40 -11 0 -18 -8 -18 -20 0
-11 -5 -20 -11 -20 -5 0 -10 -8 -9 -17 3 -29 -11 -63 -26 -63 -9 0 -14 11 -14
30 0 17 5 30 10 30 6 0 10 11 10 24 0 14 5 28 11 32 6 3 9 17 6 30 -2 14 0 27
4 30 5 3 9 27 9 54 0 37 5 52 19 62 11 8 23 26 26 41 4 15 19 33 34 40 20 10
26 20 25 42 0 29 15 55 33 55 12 1 73 58 73 70 0 5 7 10 15 10 8 0 15 5 15 10
0 6 6 10 13 10 8 0 24 11 37 25 28 30 50 32 50 5z m564 -69 c12 -10 16 -32 16
-86 0 -73 0 -73 -30 -80 -16 -4 -32 -11 -35 -16 -10 -14 -61 -10 -75 6 -7 8
-17 15 -22 15 -36 0 -53 95 -22 121 9 7 20 24 25 37 9 23 13 24 68 20 33 -2
66 -10 75 -17z m-274 -121 c0 -5 6 -10 13 -10 7 0 26 -13 42 -30 42 -44 37
-98 -13 -152 -29 -32 -90 -39 -116 -13 -8 8 -19 15 -25 15 -6 0 -11 7 -11 15
0 8 -4 15 -10 15 -5 0 -10 25 -10 55 0 60 22 95 59 95 11 0 23 5 26 10 3 6 15
10 26 10 10 0 19 -4 19 -10z m173 -122 c4 -10 7 -10 18 0 7 6 33 12 58 12 l45
0 -39 -40 c-21 -22 -43 -40 -47 -40 -5 0 -21 -11 -36 -25 -20 -19 -38 -25 -71
-25 -42 0 -43 1 -28 18 10 10 17 26 17 35 0 9 5 19 10 22 6 3 10 17 10 31 0
20 5 24 29 24 16 0 31 -6 34 -12z m-2444 -112 c11 -11 21 -30 21 -43 0 -12 5
-23 10 -23 6 0 10 -6 10 -14 0 -7 7 -19 15 -26 9 -8 15 -30 15 -58 0 -31 6
-50 18 -61 25 -22 35 -50 33 -87 -1 -18 2 -35 8 -39 6 -3 11 -19 11 -35 0 -16
5 -32 10 -35 6 -3 10 -30 10 -60 0 -30 5 -57 10 -60 6 -3 10 -44 10 -90 0 -46
-4 -87 -10 -90 -6 -4 -10 -67 -10 -155 0 -88 -4 -151 -10 -155 -5 -3 -10 -30
-10 -60 0 -30 -5 -57 -11 -60 -6 -4 -9 -21 -8 -39 2 -29 -8 -65 -20 -76 -13
-11 -31 -51 -31 -67 0 -10 -10 -23 -22 -28 -14 -6 -24 -21 -26 -35 -2 -14 -6
-32 -9 -40 -4 -8 -7 -17 -8 -20 -9 -26 -18 -48 -26 -62 -5 -10 -9 -27 -9 -38
0 -23 -16 -54 -44 -87 -22 -26 -43 -60 -52 -85 -3 -10 -15 -18 -24 -18 -11 0
-22 -10 -26 -22 -4 -13 -15 -29 -25 -36 -11 -7 -19 -19 -19 -26 0 -6 -18 -30
-40 -51 -22 -21 -40 -45 -40 -52 0 -7 -6 -13 -13 -13 -7 0 -44 -31 -82 -70
-38 -38 -74 -70 -80 -70 -7 0 -22 -11 -35 -25 -13 -14 -26 -23 -29 -20 -6 6
59 75 72 75 11 0 37 26 37 37 0 5 16 24 35 43 18 18 34 36 33 39 -1 7 10 40
23 63 5 10 9 26 9 37 0 11 5 21 11 23 6 2 13 25 16 51 3 26 10 47 14 47 5 0 9
27 9 59 0 38 5 61 13 65 10 5 10 7 0 12 -19 8 -16 25 9 51 17 18 19 26 10 35
-7 7 -12 19 -12 28 0 9 -9 25 -20 35 -21 19 -27 55 -10 55 6 0 10 5 10 10 0 6
-7 10 -15 10 -9 0 -15 9 -15 25 0 14 -4 25 -10 25 -5 0 -10 13 -10 30 0 31
-34 80 -56 80 -6 0 -17 7 -24 15 -11 13 -9 19 9 34 26 23 27 31 1 31 -13 0
-20 7 -20 19 0 12 -11 21 -32 28 -18 5 -32 15 -30 22 1 7 -7 15 -18 18 -11 3
-20 10 -20 15 0 19 -78 88 -99 88 -11 0 -21 6 -21 14 0 9 17 16 50 21 28 4 50
10 50 14 0 12 80 41 114 41 20 0 40 8 51 20 10 11 24 20 32 20 7 0 13 6 13 13
0 18 40 54 64 59 20 3 26 12 47 64 8 20 25 36 44 44 30 12 59 55 49 72 -3 5 4
17 15 27 13 11 21 30 21 50 0 17 4 31 9 31 5 0 21 23 35 52 25 50 26 59 26
219 0 101 -4 170 -10 174 -5 3 -10 16 -9 28 0 21 1 21 8 2 5 -11 18 -29 30
-39z m1947 -27 c3 -6 19 -9 35 -7 16 3 29 1 29 -4 0 -4 9 -8 20 -8 19 0 59
-18 70 -31 3 -4 15 -9 28 -13 12 -4 22 -13 22 -20 0 -7 11 -23 25 -36 14 -13
25 -34 25 -47 0 -13 4 -23 9 -23 18 0 33 -101 18 -117 -4 -3 -7 -24 -7 -45 0
-31 -3 -38 -20 -38 -11 0 -20 -6 -20 -14 0 -8 -6 -21 -13 -28 -7 -7 -16 -21
-20 -31 -4 -11 -16 -21 -27 -24 -11 -3 -20 -9 -20 -14 0 -5 -6 -9 -14 -9 -7 0
-19 -7 -26 -15 -8 -10 -30 -15 -61 -15 -26 0 -51 -4 -54 -10 -8 -12 -65 -13
-65 -1 0 5 -12 12 -27 16 -16 3 -36 14 -46 22 -9 9 -27 21 -40 28 -13 7 -21
18 -19 30 5 28 -19 65 -42 65 -15 0 -17 3 -8 8 10 7 10 14 -3 38 -9 18 -15 56
-15 98 0 65 2 70 35 103 20 20 34 42 33 51 -2 9 13 24 37 36 22 12 42 24 45
27 5 6 40 22 52 23 3 1 10 4 14 9 11 11 42 9 50 -4z m739 -19 c39 0 92 -25
108 -51 6 -10 17 -19 24 -19 18 0 53 -37 53 -55 0 -8 4 -15 10 -15 5 0 13 -18
16 -40 4 -22 10 -40 15 -40 5 0 9 -27 9 -60 0 -33 -4 -60 -9 -60 -5 0 -11 -18
-15 -40 -3 -22 -11 -40 -16 -40 -6 0 -10 -11 -10 -25 0 -14 -6 -25 -13 -25 -8
0 -22 -9 -32 -20 -10 -11 -24 -20 -31 -20 -7 0 -17 -6 -21 -12 -16 -25 -53
-38 -107 -38 -30 0 -58 5 -61 10 -3 6 -17 10 -31 10 -13 0 -24 5 -24 10 0 6
-7 10 -15 10 -8 0 -15 7 -15 15 0 8 -9 15 -20 15 -11 0 -20 5 -20 10 0 6 -5
10 -12 10 -17 0 -58 41 -58 57 0 8 -7 16 -15 19 -10 4 -15 20 -15 50 0 24 -4
44 -10 44 -17 0 -11 52 8 69 11 9 22 37 26 66 7 57 50 110 98 120 15 4 28 11
28 16 0 5 9 9 20 9 11 0 20 5 20 10 0 6 11 10 24 10 14 0 28 5 32 11 4 8 9 8
17 0 6 -6 25 -11 42 -11z m-420 -20 c12 -13 31 -20 57 -20 21 0 38 -2 38 -5 0
-10 -49 -55 -60 -55 -14 0 -13 -33 3 -49 10 -11 9 -13 -3 -9 -8 3 -16 17 -18
31 -2 15 -8 27 -13 27 -5 0 -9 11 -9 24 0 14 -4 27 -9 30 -11 7 -21 46 -12 46
5 0 16 -9 26 -20z m-1455 -38 c0 -10 -14 -31 -30 -47 -49 -47 -70 -102 -70
-184 0 -49 -5 -77 -14 -87 -17 -16 -42 -18 -51 -4 -3 6 -28 10 -55 10 -27 0
-52 -4 -55 -10 -3 -5 -18 -10 -33 -10 -15 0 -40 -7 -56 -15 -15 -8 -37 -15
-47 -15 -11 0 -19 -6 -19 -14 0 -7 -15 -21 -33 -29 -35 -17 -61 -42 -70 -67
-3 -8 -6 11 -6 42 -1 31 3 59 8 62 4 3 11 28 13 55 4 43 11 56 50 93 24 24 47
52 51 62 4 10 16 20 27 23 11 3 20 9 20 14 0 5 6 9 13 9 8 0 22 9 33 21 10 11
37 29 61 40 23 10 45 23 48 29 3 5 19 10 34 10 15 0 31 4 37 9 13 13 41 18 97
20 39 1 47 -2 47 -17z m295 -2 c3 -5 16 -10 29 -10 33 0 76 -24 116 -65 18
-19 39 -35 45 -35 24 0 38 -64 38 -176 l-1 -113 -56 -56 c-31 -30 -63 -55 -69
-55 -19 0 -67 -24 -67 -32 0 -5 -19 -8 -43 -8 -24 0 -48 -5 -54 -11 -8 -8 -13
-8 -17 0 -4 6 -20 11 -35 11 -15 0 -36 9 -46 20 -10 11 -24 20 -32 20 -7 0
-13 7 -13 15 0 8 -7 15 -15 15 -8 0 -15 6 -15 13 0 7 -16 28 -35 47 -33 32
-47 70 -25 70 6 0 10 5 10 10 0 6 -6 10 -14 10 -22 0 -29 18 -27 73 1 36 7 55
21 67 11 10 20 30 20 46 1 31 20 64 39 64 6 0 11 9 11 20 0 13 9 22 25 26 14
3 25 10 25 15 0 5 27 9 60 9 33 0 60 4 60 10 0 6 13 10 29 10 17 0 33 -4 36
-10z m399 -314 c3 -16 6 -38 6 -50 0 -12 14 -35 30 -51 19 -18 33 -43 36 -67
4 -21 10 -38 15 -38 5 0 9 -27 9 -60 0 -33 4 -60 10 -60 14 0 12 -84 -2 -98
-10 -10 -10 -17 0 -32 7 -11 9 -20 5 -20 -13 0 -33 -52 -33 -86 0 -22 -8 -37
-25 -50 -19 -14 -25 -28 -25 -56 0 -25 -7 -45 -20 -58 l-20 -20 0 49 c0 28 5
53 10 56 20 13 5 113 -20 135 -9 8 -40 77 -40 89 0 6 -7 11 -16 11 -25 0 -42
24 -37 53 6 31 -18 47 -41 28 -10 -9 -15 -8 -20 4 -3 8 -16 15 -29 15 -43 0
-65 43 -26 53 11 3 23 15 26 26 3 12 12 21 19 21 8 0 14 10 14 23 0 12 9 29
20 37 11 8 20 20 20 26 0 6 7 17 15 24 8 7 15 25 15 41 0 15 5 31 10 34 6 3
10 17 10 30 0 13 -4 27 -10 30 -14 9 -12 42 3 48 19 7 84 -55 91 -87z m794 -4
c24 -26 42 -59 42 -78 0 -16 52 -74 67 -74 5 0 20 -11 33 -25 13 -14 34 -25
47 -25 13 0 23 -3 23 -8 0 -27 171 -58 194 -34 4 4 11 7 14 7 8 1 76 31 105
47 11 5 22 7 25 4 6 -7 -33 -46 -45 -46 -5 0 -31 -22 -58 -50 -27 -27 -55 -50
-62 -50 -8 0 -16 -7 -19 -15 -4 -8 -12 -15 -18 -15 -18 0 -66 -24 -66 -32 0
-5 -11 -8 -23 -8 -13 0 -27 -3 -31 -7 -4 -4 -22 -6 -41 -5 -18 2 -36 -1 -40
-7 -3 -6 -19 -11 -35 -11 -16 0 -32 -4 -35 -10 -3 -5 -31 -10 -61 -10 -30 0
-54 5 -54 10 0 6 -22 10 -49 10 -28 0 -53 5 -57 11 -3 6 -15 9 -25 6 -10 -3
-22 -1 -25 4 -3 5 -23 9 -45 9 -21 0 -39 4 -39 8 0 5 -16 14 -35 22 -19 8 -35
20 -35 27 0 7 -7 13 -15 13 -8 0 -15 7 -15 15 0 10 -11 15 -35 15 -22 0 -35 5
-35 13 0 8 -11 24 -25 37 -34 32 -32 50 5 50 17 0 30 -4 30 -10 0 -6 35 -10
84 -10 47 0 88 5 91 10 3 6 22 10 42 10 38 0 83 31 83 57 0 7 7 13 15 13 8 0
15 7 15 15 0 8 5 15 12 15 27 0 58 43 58 82 0 42 11 48 38 20z m-5307 -79 c-7
-24 -9 -48 -6 -54 4 -5 1 -9 -4 -9 -14 0 -15 -496 -2 -504 5 -3 7 -14 4 -24
-2 -10 5 -35 16 -56 12 -20 21 -47 21 -61 0 -13 4 -26 9 -30 6 -3 13 -26 17
-50 3 -25 10 -48 15 -51 5 -3 9 -16 9 -30 0 -24 17 -63 33 -75 5 -3 8 -9 7
-13 -1 -10 33 -80 47 -94 7 -7 13 -31 13 -53 0 -30 4 -39 18 -39 9 0 31 -21
47 -45 17 -25 33 -45 38 -45 4 0 7 -10 7 -22 0 -24 68 -98 89 -98 6 0 11 -11
11 -25 0 -14 5 -25 10 -25 6 0 10 -7 10 -15 0 -8 7 -15 15 -15 8 0 15 -4 15
-10 0 -5 7 -10 15 -10 8 0 37 -22 64 -50 27 -27 54 -50 60 -50 6 0 16 -10 22
-23 6 -13 27 -31 47 -40 61 -30 82 -43 116 -76 17 -17 39 -31 48 -31 9 0 20
-4 23 -10 3 -5 17 -10 29 -10 13 0 29 -7 36 -15 7 -8 21 -15 31 -15 10 0 21
-4 24 -10 3 -5 15 -10 26 -10 11 0 27 -7 35 -15 9 -8 24 -15 34 -15 10 0 22
-4 25 -10 3 -5 17 -10 31 -10 13 0 24 -4 24 -10 0 -5 16 -10 35 -10 19 0 35
-5 35 -11 0 -7 23 -10 65 -7 36 1 65 0 65 -4 0 -5 20 -8 45 -8 25 0 45 -4 45
-10 0 -13 357 -14 364 -1 3 5 53 12 111 16 58 4 108 12 111 17 3 5 12 4 20 -3
10 -8 14 -8 14 0 0 6 16 11 35 11 19 0 35 5 35 10 0 6 7 10 15 10 8 0 15 -7
15 -15 0 -8 -4 -15 -10 -15 -5 0 -10 -5 -10 -12 0 -16 -41 -58 -57 -58 -7 0
-13 -7 -13 -15 0 -8 -7 -15 -15 -15 -8 0 -15 -6 -15 -13 0 -7 -16 -28 -35 -47
-19 -19 -35 -39 -35 -46 0 -6 -8 -15 -17 -18 -32 -12 -68 -35 -68 -45 0 -5 -3
-13 -7 -17 -5 -4 -8 -19 -9 -33 0 -14 -9 -39 -20 -56 -10 -16 -22 -37 -26 -45
-3 -8 -15 -22 -25 -31 -10 -9 -18 -26 -18 -37 0 -11 -5 -24 -10 -27 -6 -4 -8
-11 -5 -16 4 -5 1 -9 -4 -9 -6 0 -11 -9 -11 -20 0 -11 -3 -20 -7 -20 -8 0 -33
-47 -33 -62 0 -16 -35 -88 -42 -88 -5 0 -8 -20 -8 -44 0 -25 -5 -48 -11 -52
-6 -3 -9 -20 -7 -36 3 -16 1 -31 -4 -34 -4 -3 -8 -32 -8 -65 0 -33 -4 -59 -10
-59 -5 0 -10 -18 -10 -39 0 -22 -5 -43 -11 -47 -8 -4 -8 -9 0 -17 14 -14 15
-87 1 -87 -15 0 -12 -68 3 -73 9 -3 9 -10 -3 -31 -11 -22 -12 -31 -2 -47 10
-15 10 -23 0 -39 -10 -15 -10 -22 0 -32 6 -6 12 -34 12 -60 0 -26 5 -48 10
-48 6 0 10 -11 10 -24 0 -14 4 -27 9 -30 4 -3 6 -16 4 -30 -3 -13 0 -27 6 -30
6 -4 11 -29 11 -55 0 -45 17 -101 32 -101 3 0 9 -13 13 -30 4 -16 11 -32 16
-35 5 -4 9 -20 9 -37 0 -21 6 -31 19 -35 12 -3 17 -11 14 -23 -3 -10 0 -21 6
-24 6 -4 11 -18 11 -32 0 -17 5 -24 19 -24 16 0 20 -8 23 -41 2 -29 9 -45 22
-53 33 -19 56 -40 56 -51 0 -6 16 -26 35 -45 19 -19 35 -38 35 -44 0 -14 62
-76 76 -76 7 0 16 -15 19 -32 8 -37 32 -68 52 -68 7 0 16 -7 19 -15 4 -8 15
-15 25 -15 10 0 19 -6 19 -12 1 -22 37 -58 57 -58 11 0 30 -11 43 -25 13 -14
29 -25 35 -25 7 0 20 -9 30 -20 10 -11 22 -17 26 -14 5 3 9 0 9 -5 0 -6 9 -11
20 -11 11 0 20 -4 20 -10 0 -5 6 -10 13 -10 8 0 24 -11 37 -25 13 -14 34 -25
47 -25 13 0 23 -4 23 -9 0 -5 8 -12 18 -14 9 -3 -13 -5 -50 -6 -40 -1 -68 3
-68 9 0 6 -9 10 -20 10 -11 0 -28 4 -38 9 -9 6 -34 13 -54 16 -21 3 -38 10
-38 15 0 6 -9 10 -20 10 -11 0 -20 5 -20 10 0 6 -15 10 -34 10 -19 0 -38 5
-41 11 -4 5 -17 9 -28 9 -37 -3 -67 11 -67 31 0 16 -8 19 -45 19 -31 0 -47 5
-51 15 -4 8 -17 15 -29 15 -13 0 -27 5 -30 10 -3 6 -19 10 -34 10 -16 0 -34 7
-41 15 -7 8 -28 15 -46 15 -30 0 -34 3 -34 25 0 20 -5 25 -25 25 -14 0 -25 5
-25 10 0 6 -18 10 -39 10 -22 0 -42 4 -46 9 -3 5 -18 12 -34 16 -15 3 -43 21
-61 40 -19 19 -41 35 -50 35 -9 0 -25 9 -35 20 -10 11 -23 20 -30 20 -6 0 -22
11 -35 25 -13 14 -38 27 -56 31 -17 3 -47 21 -65 40 -18 19 -38 34 -44 34 -7
0 -20 9 -30 20 -10 11 -23 20 -30 20 -6 0 -29 18 -50 40 -21 22 -43 40 -48 40
-6 0 -20 11 -33 25 -13 14 -27 25 -32 25 -5 0 -17 9 -27 20 -10 11 -24 20 -32
20 -7 0 -13 7 -13 15 0 8 -5 15 -12 15 -16 0 -88 71 -88 86 0 6 -9 14 -20 17
-11 3 -23 13 -27 23 -8 23 -78 94 -91 94 -5 0 -17 9 -27 20 -10 11 -24 20 -32
20 -7 0 -13 9 -13 20 0 11 -23 42 -50 69 -28 27 -50 53 -50 58 0 5 -16 24 -35
43 -19 19 -35 39 -35 46 0 6 -7 17 -15 24 -8 7 -15 20 -15 29 0 10 -11 28 -25
41 -14 13 -25 29 -25 35 0 6 -13 24 -30 40 -16 16 -30 36 -30 46 0 9 -7 22
-15 29 -8 7 -15 18 -15 24 0 7 -11 23 -25 36 -14 13 -25 29 -25 37 0 7 -4 13
-10 13 -5 0 -10 16 -10 35 0 24 -5 35 -15 35 -8 0 -15 7 -15 15 0 8 -4 15 -10
15 -5 0 -10 9 -10 20 0 11 -4 20 -9 20 -5 0 -12 13 -16 30 -4 16 -11 32 -16
35 -5 4 -9 24 -9 46 0 21 -3 39 -8 39 -4 0 -15 17 -25 38 -9 20 -21 44 -25 52
-28 49 -33 67 -39 127 -5 52 -10 67 -25 71 -11 2 -18 13 -18 28 0 12 -4 26
-10 29 -5 3 -10 14 -10 23 0 9 -7 30 -15 46 -8 15 -15 37 -15 47 0 11 -4 19
-10 19 -6 0 -10 28 -10 63 0 35 -3 67 -7 71 -4 4 -6 22 -5 41 2 18 -1 36 -7
40 -6 3 -11 19 -11 35 0 16 -4 32 -10 35 -17 10 -11 41 10 60 18 16 18 20 6
27 -21 12 -49 72 -36 76 15 5 12 59 -4 65 -12 5 -14 44 -11 243 4 190 2 243
-9 266 -8 15 -10 28 -5 28 5 0 9 16 9 35 0 19 -4 35 -10 35 -5 0 -10 7 -10 15
0 8 5 15 10 15 15 0 12 67 -3 73 -9 4 -9 8 -1 14 8 5 14 65 18 167 3 89 10
164 16 170 14 14 13 76 -2 76 -8 0 -9 3 -3 8 20 14 35 52 35 86 0 19 5 38 11
41 6 4 9 22 7 40 -1 19 1 37 5 41 4 4 7 25 7 46 0 21 3 38 8 38 10 0 32 50 32
74 0 12 7 34 15 50 8 15 15 37 15 47 0 11 4 19 9 19 10 0 35 90 27 98 -3 3 0
12 7 20 10 13 12 13 15 -2 2 -10 -1 -38 -7 -63z m3677 -5 c9 -8 29 -20 45 -28
15 -7 27 -19 27 -27 0 -7 4 -13 9 -13 5 0 11 -9 14 -21 3 -11 14 -23 25 -25
10 -3 25 -21 32 -40 8 -19 17 -34 22 -34 5 0 5 -12 2 -26 -4 -14 -1 -36 6 -49
10 -19 10 -27 1 -39 -7 -8 -10 -20 -6 -27 4 -6 4 -14 -1 -18 -15 -10 -34 -50
-34 -69 0 -31 -78 -94 -124 -100 -23 -3 -44 -10 -48 -16 -8 -13 -142 -9 -146
4 -2 6 -18 10 -36 10 -24 0 -40 8 -59 30 -15 16 -27 34 -27 39 0 5 -9 11 -20
14 -11 3 -24 16 -29 30 -5 14 -15 28 -20 32 -12 7 -15 156 -5 218 5 25 12 37
23 37 15 0 30 20 46 60 3 9 21 21 38 29 18 7 47 20 66 29 43 21 174 21 199 0z
m-2070 -88 c13 0 21 -4 18 -8 -3 -5 15 -28 39 -52 25 -24 45 -50 45 -57 0 -7
6 -13 13 -13 8 0 22 -8 31 -19 9 -10 31 -21 48 -25 74 -15 72 -56 -2 -56 -27
0 -52 -5 -55 -10 -4 -6 -11 -7 -17 -4 -13 8 -58 -15 -83 -43 -13 -15 -32 -23
-53 -23 -18 0 -32 -4 -32 -10 0 -5 -12 -10 -27 -10 l-26 0 21 19 c16 13 22 30
22 57 0 56 9 81 31 87 16 4 19 14 19 56 0 28 -4 51 -10 51 -5 0 -10 11 -10 24
0 14 -4 28 -10 31 -5 3 -10 11 -10 18 0 8 3 8 12 -1 7 -7 23 -12 36 -12z
m-1548 -131 c0 -27 5 -49 10 -49 6 0 10 -20 10 -45 0 -25 5 -45 10 -45 6 0 10
-11 10 -24 0 -13 7 -29 15 -36 8 -7 15 -18 15 -24 0 -6 9 -18 20 -26 10 -8 22
-26 25 -42 4 -15 11 -30 16 -33 5 -4 9 -14 9 -24 0 -20 33 -54 43 -44 4 3 7 1
7 -5 0 -7 9 -12 20 -12 13 0 22 -9 26 -25 3 -14 13 -25 23 -25 9 0 22 -9 28
-19 7 -11 25 -22 41 -26 16 -3 48 -26 72 -50 24 -25 50 -45 57 -45 7 0 21 -4
31 -9 72 -39 142 -54 142 -31 0 6 14 10 30 10 17 0 30 -4 30 -10 0 -13 63 -13
75 -1 6 5 64 11 130 14 130 5 159 14 210 67 16 16 39 30 52 30 13 0 23 5 23
10 0 6 5 10 11 10 12 0 1 -43 -12 -48 -5 -2 -9 -25 -9 -51 0 -26 -5 -52 -10
-57 -6 -6 -13 -34 -17 -62 -3 -29 -10 -52 -14 -52 -14 0 -10 -38 4 -43 10 -4
10 -7 0 -18 -15 -16 -17 -105 -3 -114 6 -3 10 -18 10 -33 0 -15 7 -40 15 -56
8 -15 15 -53 15 -82 0 -30 4 -54 9 -54 5 0 11 -8 15 -17 7 -24 26 -52 54 -80
12 -13 22 -28 22 -33 0 -11 176 -183 193 -189 7 -2 22 -15 34 -28 12 -12 29
-23 38 -23 8 0 15 -4 15 -10 0 -5 7 -10 15 -10 8 0 15 -7 15 -15 0 -8 5 -15
11 -15 8 0 7 -5 -1 -15 -11 -13 -15 -13 -22 -3 -8 10 -11 10 -15 1 -5 -15 -55
-17 -68 -4 -6 5 -53 12 -105 16 -52 3 -96 10 -98 15 -2 6 -19 10 -37 10 -18 0
-35 6 -38 13 -3 9 -9 9 -25 0 -15 -9 -22 -9 -24 -1 -2 6 -31 13 -64 16 -36 3
-67 11 -79 22 -11 9 -50 32 -87 49 -37 18 -70 37 -73 42 -4 5 -17 9 -31 9 -13
0 -24 5 -24 10 0 6 -6 10 -13 10 -8 0 -22 9 -32 20 -9 10 -20 19 -24 19 -14
-2 -51 14 -51 22 0 5 -6 9 -13 9 -8 0 -41 26 -74 58 -62 59 -87 79 -113 88 -9
3 -22 20 -30 37 -16 37 -46 67 -69 67 -12 0 -12 3 -3 12 17 17 15 28 -6 28
-22 0 -58 43 -82 98 -5 12 -15 22 -22 22 -7 0 -22 19 -32 43 -11 23 -30 53
-42 67 -11 14 -27 40 -35 58 -8 17 -17 32 -21 32 -5 0 -8 16 -8 35 0 19 -4 35
-10 35 -5 0 -10 6 -10 14 0 7 -7 19 -15 26 -8 7 -15 23 -15 36 0 13 -4 24 -10
24 -5 0 -10 10 -10 23 0 12 -7 35 -15 51 -8 15 -15 48 -15 72 0 24 -4 44 -10
44 -5 0 -10 11 -10 24 0 13 -5 26 -10 28 -7 2 -13 77 -17 192 -5 143 -3 187 5
182 7 -4 12 -29 12 -57z m3928 5 c18 -5 20 -9 11 -20 -6 -8 -18 -14 -25 -14
-8 0 -14 -7 -14 -15 0 -8 -7 -15 -15 -15 -10 0 -15 11 -15 35 0 37 9 42 58 29z
m290 -61 c37 -17 112 -85 112 -101 0 -5 11 -19 25 -32 23 -22 25 -30 25 -120
0 -95 -17 -160 -41 -160 -5 0 -9 -7 -9 -15 0 -9 -8 -18 -17 -22 -10 -3 -32
-22 -50 -40 -18 -19 -37 -32 -42 -29 -5 4 -26 -3 -46 -14 -38 -21 -90 -27
-100 -10 -3 6 -19 10 -34 10 -15 0 -31 3 -35 8 -4 4 -13 7 -19 7 -7 0 -18 12
-25 28 -8 17 -21 27 -35 27 -24 0 -57 31 -57 54 0 7 -11 34 -25 60 -26 49 -35
139 -15 151 6 3 10 13 10 22 0 41 68 143 95 143 7 0 20 9 30 20 10 12 24 19
30 16 7 -2 18 0 26 5 25 16 158 10 197 -8z m2295 -249 c3 -27 10 -50 16 -52
15 -5 14 -29 -1 -36 -10 -5 -10 -7 0 -12 6 -3 12 -16 12 -28 0 -12 4 -26 10
-32 5 -5 10 -68 11 -140 0 -72 4 -170 8 -217 4 -48 3 -91 -2 -96 -5 -5 -6 -15
-2 -22 10 -16 10 -82 1 -98 -4 -7 -5 -20 -1 -29 4 -9 6 -45 5 -79 -1 -34 4
-70 11 -81 10 -16 9 -24 -4 -43 -10 -13 -17 -34 -17 -46 0 -13 -4 -23 -10 -23
-5 0 -10 -9 -10 -20 0 -11 5 -20 10 -20 6 0 10 -33 10 -79 0 -44 -4 -83 -10
-86 -5 -3 -10 -24 -10 -45 0 -21 -4 -41 -9 -44 -5 -3 -12 -34 -16 -68 -6 -59
-14 -87 -38 -133 -7 -13 -6 -20 2 -23 16 -5 14 -27 -8 -65 -10 -18 -20 -61
-23 -96 -2 -34 -9 -66 -14 -69 -6 -4 -18 -24 -27 -44 -10 -20 -22 -40 -27 -43
-6 -3 -10 -17 -10 -31 0 -13 -4 -24 -10 -24 -5 0 -10 -16 -10 -35 0 -38 -12
-65 -46 -105 -12 -14 -24 -43 -27 -65 -4 -22 -11 -41 -17 -43 -5 -2 -10 -12
-10 -23 0 -10 -4 -19 -10 -19 -5 0 -10 -11 -10 -25 0 -16 -6 -25 -15 -25 -9 0
-15 -9 -15 -23 0 -12 -10 -30 -23 -40 -13 -9 -29 -33 -37 -52 -8 -19 -17 -35
-22 -35 -4 0 -8 -9 -8 -20 0 -13 -9 -22 -25 -26 -16 -4 -25 -13 -25 -25 0 -10
-4 -19 -9 -19 -5 0 -11 -17 -14 -38 -4 -21 -15 -44 -27 -52 -11 -8 -20 -24
-20 -36 0 -22 -23 -47 -52 -57 -13 -5 -18 -17 -18 -46 0 -30 -4 -40 -20 -44
-11 -3 -24 -16 -29 -29 -5 -12 -18 -32 -30 -42 -11 -11 -21 -23 -21 -28 0 -5
-4 -14 -10 -21 -5 -7 -21 -27 -36 -44 -14 -18 -32 -33 -40 -33 -8 0 -14 -6
-14 -13 0 -7 -13 -26 -30 -42 -16 -15 -28 -31 -27 -34 1 -3 -2 -7 -8 -9 -18
-6 -45 -35 -45 -47 0 -7 -8 -15 -17 -19 -44 -14 -75 -42 -93 -83 -8 -17 -21
-34 -30 -37 -35 -12 -80 -49 -80 -65 0 -6 -6 -11 -13 -11 -7 0 -33 -20 -57
-45 -24 -25 -48 -45 -53 -45 -6 0 -23 -14 -39 -30 -15 -16 -33 -30 -39 -30 -6
0 -22 -14 -36 -30 -13 -17 -29 -27 -35 -24 -5 3 -12 -2 -14 -12 -5 -20 -47
-44 -76 -44 -10 0 -21 -7 -24 -15 -4 -8 -13 -15 -20 -15 -8 0 -28 -16 -45 -35
-19 -21 -40 -35 -54 -35 -12 0 -28 -7 -35 -15 -7 -8 -18 -15 -24 -15 -6 0 -18
-9 -26 -20 -8 -10 -26 -22 -42 -25 -15 -4 -30 -11 -33 -16 -4 -5 -17 -9 -31
-9 -13 0 -24 -4 -24 -9 0 -5 -8 -11 -17 -15 -10 -3 -31 -14 -48 -25 -16 -11
-37 -20 -46 -20 -9 -1 -22 -8 -29 -16 -7 -8 -28 -15 -46 -15 -19 0 -34 -3 -34
-8 0 -4 -15 -13 -32 -21 -75 -31 -104 -46 -116 -58 -7 -7 -33 -13 -57 -13 -24
0 -47 -5 -50 -10 -3 -6 -17 -10 -31 -10 -13 0 -24 -4 -24 -10 0 -5 -8 -10 -19
-10 -10 0 -32 -7 -47 -15 -16 -8 -37 -15 -46 -15 -9 0 -20 -5 -23 -10 -3 -6
-27 -10 -52 -10 -38 0 -44 2 -34 14 7 8 23 17 38 21 14 3 33 15 42 25 9 12 31
21 53 22 21 2 38 6 38 11 0 10 47 57 58 57 4 0 21 14 37 30 16 17 33 30 39 30
15 0 56 42 56 57 0 7 6 13 13 13 7 0 35 23 62 50 27 28 54 50 61 50 13 0 46
35 39 42 -3 3 4 13 15 23 11 10 20 24 20 32 0 7 5 13 10 13 6 0 10 6 10 13 0
7 18 31 40 52 28 27 40 48 40 67 0 20 10 38 35 59 22 19 35 40 35 55 0 13 4
24 8 24 4 0 16 14 26 30 15 26 16 33 4 47 -10 13 -10 17 0 20 6 3 12 10 12 17
0 7 9 21 20 31 10 9 22 37 26 61 3 24 10 47 15 50 5 3 9 16 9 30 0 24 17 63
34 75 4 4 3 10 -3 13 -14 9 -14 63 0 71 6 4 9 27 8 51 -2 24 0 46 4 50 9 9 9
49 0 58 -11 11 -12 35 -2 42 12 7 12 71 -1 79 -6 4 -5 13 2 24 6 10 8 27 4 37
-5 11 -7 58 -6 106 1 51 -3 89 -9 93 -6 3 -11 37 -11 76 0 38 -3 69 -7 69 -9
0 -33 48 -33 63 0 13 -53 121 -61 125 -3 1 -4 14 -1 27 5 27 -19 85 -43 105
-8 7 -15 18 -15 25 0 7 -7 18 -15 25 -8 7 -15 20 -15 30 0 9 -9 25 -20 35 -10
9 -19 20 -18 24 3 16 -18 48 -49 75 -19 16 -33 38 -33 51 0 22 -32 57 -63 68
-9 4 -21 17 -26 29 -5 13 -22 34 -37 48 -27 22 -27 25 -9 28 10 3 21 -1 23 -7
2 -7 41 -11 111 -11 59 0 110 -3 113 -6 4 -3 86 -5 183 -5 97 0 179 2 183 5 3
3 45 6 93 6 53 0 91 4 95 11 4 8 9 7 16 -2 7 -11 11 -11 15 -1 2 6 15 12 28
12 12 0 28 7 35 15 7 8 21 15 33 15 11 0 27 8 36 19 9 10 36 22 61 25 52 8
126 42 155 71 23 23 58 41 99 50 16 3 44 22 61 41 17 19 36 34 42 34 5 0 18 9
28 20 10 11 29 20 42 20 16 0 27 8 33 24 5 14 19 26 31 28 12 2 27 12 33 23
15 25 48 54 64 55 6 0 12 3 12 8 0 4 10 12 23 17 15 7 24 21 27 45 3 24 13 38
30 47 14 7 25 18 25 25 0 7 12 19 27 26 20 9 29 23 33 50 9 54 14 64 25 57 9
-6 35 41 32 58 -1 4 2 7 8 7 6 0 10 9 10 20 0 13 7 20 20 20 17 0 20 7 20 39
0 22 7 46 15 55 8 8 15 24 15 35 0 12 4 21 9 21 5 0 12 11 15 25 4 14 11 25
16 25 6 0 10 16 10 35 0 19 5 35 10 35 6 0 10 30 10 70 0 40 4 70 10 70 6 0
10 10 10 23 0 13 11 34 25 47 14 13 25 29 25 37 0 7 5 13 11 13 7 0 10 12 7
30 -3 17 -1 30 4 30 5 0 8 8 7 18 -1 9 -1 46 0 82 l1 65 24 -46 c13 -26 26
-68 29 -95z m-5083 81 c-7 -8 -17 -12 -23 -8 -6 4 -3 9 9 14 27 11 28 11 14
-6z m1800 -4 c0 -18 53 -81 68 -81 4 0 19 -11 34 -25 15 -14 36 -25 48 -25 11
0 20 -4 20 -10 0 -5 9 -10 20 -10 11 0 20 -4 20 -10 0 -6 31 -10 74 -10 41 0
78 5 81 10 3 6 19 10 34 10 16 0 37 10 51 25 13 14 29 25 37 25 7 0 13 5 13
11 0 8 5 8 15 -1 10 -8 15 -30 15 -65 0 -39 5 -56 19 -69 11 -10 17 -24 14
-32 -3 -8 3 -17 13 -21 26 -10 40 -25 49 -53 13 -42 35 -60 75 -60 21 0 43 -7
50 -15 7 -8 19 -15 26 -15 8 0 14 -4 14 -10 0 -6 35 -10 85 -10 50 0 85 -4 85
-10 0 -5 -13 -10 -29 -10 -17 0 -33 -4 -36 -10 -3 -5 -17 -10 -31 -10 -13 0
-24 -4 -24 -9 0 -11 -38 -24 -67 -21 -11 0 -24 -4 -28 -9 -8 -14 -202 -15
-210 -1 -4 6 -15 8 -26 5 -11 -4 -19 -2 -19 4 0 6 -11 11 -24 11 -14 0 -28 5
-31 10 -3 6 -21 10 -39 10 -36 0 -96 26 -96 41 0 5 -10 9 -23 9 -13 0 -34 11
-47 25 -13 14 -28 25 -34 25 -15 0 -86 72 -86 87 0 7 -7 13 -15 13 -8 0 -15 6
-15 13 0 8 -16 28 -35 46 -19 17 -35 38 -35 46 0 8 -4 15 -10 15 -5 0 -10 11
-10 24 0 14 -4 28 -10 31 -5 3 -10 33 -10 66 0 46 3 59 15 59 8 0 15 -9 15
-19z m1850 -16 c0 -14 -6 -25 -13 -25 -7 0 -45 -33 -85 -73 -53 -54 -72 -79
-72 -99 0 -15 -4 -30 -10 -33 -5 -3 -10 -42 -10 -86 0 -64 -3 -79 -15 -79 -8
0 -15 -4 -15 -10 0 -5 -7 -10 -15 -10 -8 0 -15 5 -15 10 0 6 -22 10 -49 10
-28 0 -53 -4 -56 -10 -3 -5 -17 -10 -31 -10 -13 0 -24 -4 -24 -10 0 -5 -17
-12 -37 -16 -44 -8 -113 -71 -113 -102 0 -11 -9 -22 -20 -25 -17 -4 -20 -14
-20 -60 0 -31 -4 -59 -10 -62 -5 -3 -10 -26 -10 -50 0 -24 5 -47 10 -50 6 -3
10 -23 11 -43 0 -20 9 -50 20 -67 10 -16 22 -37 26 -45 10 -21 30 -40 42 -40
6 0 11 -5 11 -11 0 -16 26 -39 44 -39 9 0 16 -4 16 -10 0 -5 6 -10 14 -10 7 0
19 -7 26 -15 10 -12 38 -15 131 -15 65 0 120 4 123 9 3 4 17 6 31 4 18 -4 27
0 32 13 10 27 31 46 43 39 5 -3 10 -24 10 -46 0 -23 5 -39 12 -39 6 0 8 -3 5
-7 -4 -3 0 -15 9 -25 9 -9 26 -37 38 -60 12 -24 26 -44 31 -44 37 -5 55 -18
55 -40 0 -22 4 -24 49 -24 28 0 53 -4 56 -10 3 -5 24 -10 46 -10 60 0 52 -26
-11 -35 -27 -4 -50 -11 -50 -16 0 -5 -18 -9 -39 -9 -22 0 -43 -5 -47 -11 -4
-8 -9 -7 -16 2 -7 11 -11 11 -15 2 -2 -7 -12 -13 -22 -13 -9 0 -23 6 -30 13
-11 10 -14 10 -18 0 -6 -15 -33 -17 -33 -3 0 6 -22 10 -49 10 -28 0 -53 5 -56
10 -3 6 -19 10 -35 10 -16 0 -32 5 -35 10 -9 15 -91 50 -117 50 -16 0 -44 21
-83 60 -33 33 -63 60 -68 60 -17 0 -48 46 -48 70 -1 11 -33 40 -45 40 -7 0
-20 17 -29 38 -9 20 -21 45 -26 54 -5 10 -9 27 -9 38 0 11 -5 20 -11 20 -5 0
-8 4 -4 9 3 5 1 12 -5 16 -5 3 -10 17 -10 31 0 13 -4 24 -10 24 -5 0 -10 23
-10 50 0 28 5 50 10 50 6 0 10 9 10 20 0 11 -4 20 -10 20 -6 0 -10 32 -10 75
0 41 3 75 8 75 13 0 34 60 29 86 -2 13 0 27 4 30 5 3 9 18 9 34 0 16 5 32 10
35 6 3 10 14 10 23 1 23 35 62 54 62 11 0 16 10 16 33 0 24 8 41 28 58 27 25
61 43 73 41 4 -1 15 8 24 18 10 11 14 20 10 20 -5 0 2 11 15 25 16 17 34 25
57 25 18 0 33 4 33 9 0 5 8 11 18 15 21 7 55 28 63 40 4 4 10 3 13 -3 9 -14
76 -15 76 -1 0 6 18 10 39 10 22 0 43 5 46 10 11 18 25 10 25 -15z m245 -55
c3 -5 23 -10 44 -10 30 0 40 -4 44 -20 3 -11 13 -23 24 -27 22 -8 43 -28 43
-41 0 -5 7 -15 15 -22 12 -10 15 -37 15 -120 0 -120 -6 -138 -63 -194 -20 -19
-37 -42 -37 -50 0 -9 -15 -17 -40 -21 -22 -4 -42 -11 -46 -16 -7 -12 -111 -12
-119 1 -3 6 -24 10 -46 10 -42 0 -69 20 -89 67 -5 12 -22 27 -37 35 -21 10
-29 22 -31 45 -2 17 -10 37 -18 43 -15 14 -20 110 -5 110 5 0 12 24 15 53 6
45 14 60 53 100 44 45 47 47 104 47 33 0 59 4 59 10 0 6 24 10 54 10 30 0 58
-4 61 -10z m285 -142 c0 -21 6 -31 20 -35 11 -3 20 -12 20 -19 0 -9 11 -14 30
-14 23 0 33 -6 40 -24 5 -13 14 -27 19 -31 6 -3 11 -15 11 -27 0 -11 8 -22 20
-25 13 -4 20 -14 20 -29 0 -14 7 -27 15 -30 12 -5 15 -25 15 -89 0 -46 5 -87
10 -90 6 -3 10 -52 10 -111 0 -63 -4 -104 -10 -104 -5 0 -10 -11 -10 -23 0
-13 -9 -32 -20 -42 -11 -10 -17 -21 -15 -25 5 -9 -22 -67 -36 -75 -5 -4 -9 12
-9 34 0 22 -5 43 -11 46 -5 4 -9 17 -8 28 3 34 -15 68 -60 112 -23 21 -41 43
-41 47 0 22 -37 48 -67 48 -18 0 -33 5 -33 10 0 6 -20 10 -45 10 -25 0 -45 5
-45 10 0 6 -12 10 -26 10 -14 0 -24 5 -22 11 2 6 7 10 12 9 4 -1 16 8 25 19
10 12 27 21 37 21 20 0 64 37 64 54 0 6 19 29 41 51 l42 40 -6 119 c-4 66 -11
124 -17 130 -16 16 -12 25 10 19 14 -4 20 -14 20 -35z m-2450 -73 c0 -8 5 -15
10 -15 6 0 10 -22 10 -48 0 -27 3 -52 8 -56 4 -4 8 -11 8 -14 6 -27 18 -52 25
-52 5 0 9 -16 9 -35 0 -19 5 -35 10 -35 6 0 10 -5 10 -11 0 -13 31 -82 40 -89
10 -8 23 -44 21 -54 -4 -18 24 -60 67 -102 23 -22 42 -50 42 -61 0 -11 11 -30
25 -43 14 -13 25 -27 25 -31 0 -5 19 -27 43 -49 23 -23 42 -44 43 -48 0 -4 4
-15 9 -25 9 -22 -1 -35 -17 -19 -7 7 -24 12 -39 12 -15 0 -30 4 -33 9 -3 4
-37 11 -76 15 -38 4 -72 11 -75 17 -8 11 -312 12 -319 0 -3 -4 -37 -11 -76
-15 -38 -4 -72 -12 -76 -18 -4 -7 -9 -6 -15 3 -6 10 -12 9 -27 -8 -14 -17 -34
-23 -95 -29 -43 -4 -80 -11 -83 -15 -3 -5 -14 -9 -26 -9 -18 0 -19 2 -7 16 7
9 18 26 24 37 6 12 21 27 33 33 13 6 33 20 45 31 12 11 30 23 40 26 9 4 22 18
27 32 5 14 22 30 36 35 15 6 24 13 20 17 -3 3 1 15 11 25 19 21 40 56 49 81 3
9 13 17 21 17 21 0 46 27 33 35 -17 11 9 35 36 35 24 0 33 23 14 35 -16 10
-12 21 15 35 21 11 25 21 25 57 0 24 4 43 9 43 7 0 19 25 25 52 0 3 4 10 9 14
4 4 7 15 7 24 0 9 9 25 20 35 12 11 20 31 20 49 0 46 11 76 26 76 8 0 14 -7
14 -15z m1780 -258 c30 -30 60 -62 66 -73 6 -10 22 -21 35 -24 14 -4 23 -13
21 -22 -1 -8 7 -23 18 -33 21 -19 29 -95 10 -95 -5 0 -10 -10 -10 -23 0 -13
-15 -37 -35 -57 -25 -24 -36 -45 -41 -77 -5 -33 -11 -43 -25 -43 -11 0 -27 -4
-37 -9 -69 -35 -101 -41 -182 -33 -48 5 -65 11 -65 22 0 10 -13 16 -42 18 -29
2 -43 8 -43 18 0 8 -3 14 -8 14 -8 0 -15 12 -47 79 -11 22 -23 41 -27 41 -5 0
-8 32 -8 71 0 62 2 71 20 76 13 3 20 14 20 29 0 12 5 26 11 29 6 4 8 13 5 20
-5 13 33 55 50 55 5 0 16 9 24 20 8 11 20 20 26 20 6 0 17 7 24 15 9 11 34 15
99 15 l86 0 55 -53z m260 -157 c0 -16 -27 -48 -33 -39 -31 55 -34 68 -15 87 8
8 16 6 30 -10 10 -12 18 -29 18 -38z m260 -20 c0 -5 11 -10 24 -10 13 0 29 -7
36 -15 7 -8 18 -15 25 -15 6 0 20 -9 30 -20 10 -11 20 -18 23 -15 7 6 32 -43
32 -62 0 -9 9 -24 21 -34 11 -10 18 -23 14 -29 -4 -6 -1 -17 5 -25 8 -9 10
-32 6 -62 -3 -27 -6 -59 -6 -72 0 -13 -13 -35 -30 -51 -17 -15 -30 -37 -30
-48 0 -11 -8 -22 -17 -26 -21 -6 -51 -25 -71 -43 -7 -7 -22 -13 -32 -13 -10 0
-22 -4 -25 -10 -8 -14 -105 -13 -105 1 0 6 -12 10 -27 8 -40 -3 -62 9 -109 58
-23 24 -47 43 -53 43 -6 0 -11 7 -11 15 0 8 -3 15 -8 15 -4 0 -16 19 -26 43
-24 55 -17 149 13 181 12 12 21 28 21 34 0 36 52 97 107 124 24 12 43 25 43
30 0 4 34 8 75 8 43 0 75 -4 75 -10z m-2250 -372 c0 -4 65 -8 144 -8 86 0 147
-4 151 -10 3 -5 17 -10 31 -10 13 0 24 -4 24 -10 0 -5 18 -13 40 -16 22 -4 40
-10 40 -15 0 -5 9 -9 19 -9 10 0 21 -7 25 -15 3 -8 15 -15 26 -15 18 0 56 -16
70 -30 10 -10 45 -31 62 -36 9 -3 18 -14 21 -24 3 -12 18 -21 43 -26 22 -4 46
-15 54 -24 8 -9 32 -20 52 -24 21 -4 43 -14 50 -24 18 -24 53 -42 81 -42 24 0
87 -45 87 -62 0 -14 -43 2 -61 23 -9 11 -29 19 -45 19 -16 0 -38 7 -48 15 -16
12 -57 15 -203 15 -103 0 -183 -4 -183 -9 0 -5 -8 -7 -19 -4 -10 3 -22 0 -25
-6 -4 -6 -18 -11 -32 -11 -13 0 -24 -6 -24 -12 0 -9 -3 -8 -10 2 -8 12 -16 8
-48 -23 -21 -20 -45 -37 -53 -37 -9 0 -24 -9 -34 -20 -10 -11 -15 -20 -11 -20
4 0 1 -6 -6 -13 -14 -14 -38 -25 -50 -23 -3 0 -18 -10 -32 -23 -14 -14 -26
-19 -26 -13 0 7 -4 12 -10 12 -5 0 -10 -7 -10 -15 0 -8 4 -15 9 -15 20 0 3
-35 -37 -75 -31 -32 -42 -52 -42 -74 0 -17 -3 -31 -8 -31 -11 0 -34 -58 -27
-70 3 -5 1 -10 -4 -10 -6 0 -11 -11 -11 -24 0 -14 -4 -28 -10 -31 -5 -3 -10
-19 -10 -36 0 -19 -5 -29 -15 -29 -8 0 -15 5 -15 11 0 20 -34 84 -56 104 -11
11 -24 28 -27 37 -3 9 -19 25 -34 35 -15 10 -51 41 -79 69 -28 28 -62 55 -77
60 -15 5 -27 14 -28 19 -1 19 -22 35 -44 35 -12 0 -30 9 -40 20 -10 11 -30 20
-45 20 -15 0 -33 7 -40 15 -9 10 -32 15 -76 15 -34 0 -66 5 -69 10 -3 6 -28
10 -56 10 -27 0 -49 5 -49 10 0 6 -11 10 -24 10 -14 0 -28 -4 -31 -10 -3 -5
-28 -10 -55 -10 -29 0 -63 -7 -82 -18 -18 -10 -38 -17 -45 -15 -6 2 -14 -1
-18 -6 -3 -6 -21 -11 -38 -11 -21 0 -36 -7 -44 -19 -7 -11 -24 -21 -39 -23
-18 -2 -33 -13 -44 -33 -11 -18 -24 -29 -34 -27 -9 2 -30 -11 -46 -29 l-30
-31 0 26 c0 14 5 26 10 26 6 0 10 5 10 12 0 16 71 88 87 88 7 0 13 10 13 22 0
28 47 78 74 78 15 0 27 13 41 42 14 29 29 45 50 51 17 5 39 18 51 28 11 11 24
19 28 19 4 0 17 10 29 23 26 27 86 57 116 57 14 0 21 6 21 19 0 22 22 33 70
35 30 1 35 5 38 29 3 24 7 27 41 27 22 0 44 6 51 15 7 8 23 15 35 15 13 0 25
5 27 10 2 6 36 13 76 17 39 3 72 10 72 14 0 5 16 9 35 9 19 0 35 5 35 10 0 6
46 10 119 10 66 0 122 3 124 8 7 10 77 10 77 0z m-1080 -288 c0 -11 -7 -20
-15 -20 -18 0 -19 12 -3 28 16 16 18 15 18 -8z m1680 -110 c0 -5 -6 -10 -13
-10 -7 0 -19 -9 -27 -21 -8 -11 -35 -29 -59 -40 -37 -18 -42 -24 -38 -45 2
-13 0 -27 -4 -30 -5 -3 -9 -16 -9 -30 0 -13 -4 -24 -10 -24 -14 0 -13 -163 1
-177 6 -6 9 -26 7 -44 -3 -31 -6 -34 -40 -37 -22 -2 -38 1 -38 7 0 13 -87 15
-95 2 -3 -5 -19 -12 -35 -16 -45 -10 -82 -31 -115 -65 -16 -16 -35 -30 -42
-30 -7 0 -13 -6 -13 -13 0 -8 -11 -24 -25 -37 -14 -13 -25 -29 -25 -37 0 -7
-4 -13 -9 -13 -6 0 -11 -17 -13 -37 -2 -20 -8 -38 -15 -40 -7 -3 -10 3 -6 15
2 11 0 23 -6 26 -13 9 -15 112 -2 120 5 4 12 25 16 49 4 23 10 44 14 47 13 11
31 51 31 70 0 11 7 23 15 26 8 4 15 14 15 24 0 10 7 20 15 24 8 3 20 16 26 28
5 13 16 33 23 46 16 27 112 122 124 122 4 0 21 14 38 31 33 35 101 69 138 69
14 0 28 5 31 10 3 6 17 10 29 10 13 0 37 7 52 15 33 17 64 20 64 5z m494 -125
c8 -8 18 -15 23 -15 13 -1 53 -37 53 -49 0 -6 23 -32 50 -58 28 -26 50 -54 50
-63 0 -21 23 -70 33 -70 4 0 7 -11 7 -24 0 -13 7 -29 15 -36 8 -7 15 -21 15
-31 0 -10 5 -21 10 -24 6 -3 10 -19 10 -35 0 -16 3 -31 8 -33 4 -3 5 -84 2
-181 -5 -173 -6 -176 -31 -202 l-26 -26 -6 62 c-3 33 -10 66 -15 73 -6 7 -12
30 -14 52 -2 24 -8 40 -15 40 -7 0 -13 5 -13 10 -1 6 -22 31 -47 58 -35 35
-55 47 -76 47 -17 0 -37 8 -46 19 -9 11 -32 21 -51 23 -24 2 -36 9 -38 21 -2
9 2 17 8 17 18 0 59 46 66 74 3 15 10 29 15 32 5 3 9 27 9 55 0 27 5 49 10 49
24 0 6 117 -21 140 -10 8 -18 90 -9 90 5 0 15 -7 24 -15z m-2146 -92 c-27 -28
-49 -62 -53 -80 -3 -18 -11 -35 -16 -38 -12 -8 -12 -45 1 -45 15 0 12 -57 -2
-63 -10 -4 -10 -7 0 -18 8 -8 12 -44 12 -99 0 -78 2 -89 23 -109 15 -13 30
-19 40 -15 13 5 17 0 17 -20 0 -24 -4 -26 -39 -26 -22 0 -43 -5 -46 -11 -4 -6
-23 -10 -44 -9 -55 3 -58 2 -64 -20 -3 -11 -17 -24 -31 -30 -14 -5 -26 -14
-26 -20 0 -5 -9 -10 -20 -10 -15 0 -20 -7 -20 -24 0 -14 -4 -27 -9 -31 -18
-11 -41 -68 -41 -102 0 -18 -4 -33 -10 -33 -5 0 -10 -20 -10 -45 0 -25 5 -45
10 -45 6 0 10 -11 10 -25 0 -14 5 -25 10 -25 6 0 10 -11 10 -24 0 -13 7 -29
15 -36 8 -7 15 -22 15 -34 0 -12 9 -28 20 -36 11 -8 20 -20 20 -27 0 -7 5 -13
11 -13 7 0 19 -8 28 -19 9 -10 36 -22 61 -26 26 -4 53 -17 63 -28 15 -18 21
-19 37 -9 11 7 46 12 78 12 32 0 63 5 69 11 6 6 35 14 64 17 45 6 55 11 69 37
11 19 26 31 42 33 24 3 26 7 26 45 0 54 22 100 40 81 7 -7 12 -18 12 -24 0 -5
5 -10 11 -10 6 0 30 -19 53 -42 46 -47 58 -55 130 -93 40 -20 64 -25 124 -25
54 0 73 -3 70 -12 -3 -7 -14 -17 -26 -23 -12 -5 -22 -13 -22 -17 0 -5 -6 -8
-13 -8 -7 0 -23 -10 -37 -23 -25 -23 -59 -41 -71 -39 -4 1 -15 -8 -24 -18 -10
-11 -28 -20 -40 -20 -12 0 -36 -7 -53 -16 -26 -12 -65 -15 -223 -12 -143 2
-193 6 -197 16 -2 6 -12 12 -21 12 -25 0 -74 26 -96 50 -10 11 -30 20 -44 20
-19 0 -42 15 -76 50 -27 28 -55 50 -62 50 -7 0 -13 6 -13 13 0 8 -11 24 -25
37 -14 13 -25 29 -25 37 0 7 -7 13 -15 13 -17 0 -35 39 -35 76 0 13 -9 29 -20
36 -11 7 -20 22 -20 33 0 12 -5 26 -11 32 -5 5 -13 36 -16 67 -3 31 -10 59
-14 62 -12 7 -12 134 0 134 4 0 11 23 14 52 4 28 11 56 17 62 14 14 13 46 -2
47 -10 0 -10 2 0 6 6 2 12 10 12 17 0 7 8 21 19 30 12 11 20 35 23 72 5 53 35
104 62 104 6 0 20 19 31 42 14 29 29 45 50 51 33 11 55 30 55 46 0 6 7 11 15
11 8 0 20 9 27 20 7 11 23 20 35 20 13 0 23 6 23 13 0 11 71 53 95 56 5 0 -12
-20 -37 -46z m449 -45 c13 -12 23 -32 23 -45 0 -13 5 -23 10 -23 6 0 10 -9 10
-20 0 -11 -4 -20 -8 -20 -5 0 -14 -15 -21 -33 -21 -53 -83 -73 -116 -37 -10
11 -24 20 -30 20 -7 0 -15 9 -18 21 -3 11 -15 23 -26 26 -27 7 -27 23 -1 30
12 3 20 14 20 26 0 12 12 34 27 49 34 36 95 39 130 6z m213 2 c0 -11 6 -20 14
-20 8 0 21 -6 28 -13 7 -7 21 -16 31 -20 9 -4 20 -15 24 -24 4 -10 17 -27 30
-38 13 -11 23 -27 23 -34 0 -7 11 -22 25 -33 14 -11 25 -29 25 -40 0 -11 8
-28 18 -37 26 -24 52 -68 52 -88 0 -10 9 -25 20 -33 17 -12 20 -26 20 -92 0
-43 -3 -78 -6 -78 -4 0 -20 14 -36 30 -15 17 -32 30 -36 30 -5 0 -17 8 -28 18
-10 10 -36 26 -56 35 -20 10 -40 22 -43 27 -8 13 -55 13 -55 0 0 -17 -21 -11
-41 13 -20 24 -25 72 -9 82 6 4 10 55 10 119 0 116 -14 170 -46 183 -24 9 -16
33 11 33 18 0 25 -5 25 -20z m-485 -64 c51 -27 72 -100 35 -126 -11 -8 -20
-20 -20 -27 0 -16 -32 -17 -47 -2 -6 6 -26 14 -45 18 -28 6 -34 12 -42 45 -7
27 -6 42 2 54 7 9 15 25 18 35 8 21 60 23 99 3z m-515 -31 c0 -8 -4 -15 -9
-15 -13 0 -22 16 -14 24 11 11 23 6 23 -9z m666 -176 c11 -10 25 -19 31 -19
17 0 22 -73 7 -91 -8 -8 -14 -23 -14 -32 0 -14 -10 -17 -48 -17 -26 0 -53 5
-59 11 -6 6 -22 17 -35 23 -41 21 -34 68 21 129 29 32 60 30 97 -4z m2207
-211 c6 -70 24 -128 40 -128 4 0 7 -27 7 -60 0 -33 4 -60 10 -60 6 0 10 -68
10 -185 0 -117 -4 -185 -10 -185 -5 0 -10 -11 -10 -25 0 -14 -4 -25 -10 -25
-6 0 -10 -26 -10 -59 0 -33 -5 -63 -10 -66 -6 -4 -8 -11 -5 -16 4 -5 1 -9 -4
-9 -7 0 -11 -27 -11 -70 0 -40 -4 -70 -10 -70 -5 0 -10 -11 -10 -24 0 -13 -7
-29 -15 -36 -8 -7 -15 -18 -15 -24 0 -6 -9 -18 -20 -26 -11 -8 -20 -24 -20
-35 0 -12 -4 -25 -9 -30 -5 -6 -13 -26 -18 -45 -5 -21 -18 -39 -31 -45 -15 -7
-22 -19 -22 -39 0 -16 -8 -36 -18 -45 -10 -9 -25 -32 -34 -51 -9 -19 -33 -51
-52 -69 -20 -19 -36 -40 -36 -46 0 -5 -9 -16 -20 -23 -11 -7 -20 -19 -20 -27
0 -8 -5 -15 -10 -15 -6 0 -34 -22 -62 -50 -28 -27 -55 -50 -60 -50 -11 0 -38
-26 -38 -36 0 -18 -56 -64 -77 -64 -16 0 -23 -6 -23 -20 0 -13 -9 -22 -25 -26
-14 -3 -25 -10 -25 -15 0 -5 -6 -9 -13 -9 -8 0 -21 -8 -31 -19 -10 -11 -25
-16 -39 -14 -15 3 -32 -6 -56 -31 -19 -20 -40 -36 -46 -36 -7 0 -20 -9 -30
-20 -24 -26 -35 -25 -35 4 0 14 7 26 18 30 9 3 31 15 47 26 17 11 39 24 50 29
22 10 55 46 55 60 0 4 9 16 19 25 11 10 17 24 14 32 -3 8 8 26 24 42 18 16 33
42 37 65 4 20 10 37 14 37 20 0 32 66 33 183 2 93 6 130 15 138 19 15 18 29
-2 29 -9 0 -12 5 -8 12 9 14 10 76 1 85 -4 3 -7 20 -7 38 0 33 -20 85 -32 85
-5 0 -8 11 -8 25 0 16 -6 25 -15 25 -8 0 -15 6 -15 13 0 8 -9 22 -20 32 -11
10 -23 33 -26 52 -4 22 -14 37 -28 43 -24 9 -54 40 -70 73 -7 12 -25 25 -41
28 -17 4 20 7 81 8 60 0 114 5 120 10 5 5 40 11 78 13 42 3 71 9 74 16 2 7 15
12 28 12 13 0 24 4 24 9 0 5 13 12 30 16 16 4 32 11 35 16 4 5 15 9 26 9 26 0
160 134 183 183 9 20 21 37 26 37 6 0 10 11 10 23 0 13 9 32 20 42 13 11 18
25 14 37 -3 10 -2 18 3 18 11 0 33 50 33 75 0 12 5 26 11 32 6 6 13 54 16 107
3 53 10 96 14 96 5 0 9 7 9 15 0 8 6 15 14 15 9 0 15 -21 19 -72z m-3033 -178
c6 0 10 -22 10 -48 0 -27 3 -52 7 -56 4 -4 6 -24 4 -45 -2 -34 11 -74 30 -91
7 -7 39 -76 39 -85 0 -4 8 -15 18 -24 19 -17 36 -50 33 -64 0 -4 7 -10 16 -14
30 -10 73 -56 73 -77 0 -22 38 -46 72 -46 10 0 22 -10 27 -23 11 -29 29 -44
64 -52 15 -4 27 -11 27 -16 0 -5 16 -9 35 -9 19 0 35 -4 35 -10 0 -5 11 -10
24 -10 14 0 27 -4 30 -9 3 -5 15 -7 26 -4 11 3 20 0 20 -6 0 -6 11 -11 24 -11
14 0 28 -4 31 -10 8 -13 252 -13 260 0 3 6 17 10 31 10 13 0 24 4 24 9 0 5 9
11 20 14 29 7 26 -24 -5 -53 -18 -17 -25 -34 -25 -61 0 -20 -7 -42 -15 -49 -8
-7 -15 -23 -15 -36 0 -13 -4 -24 -10 -24 -5 0 -10 -15 -10 -34 0 -19 -5 -36
-12 -38 -15 -5 -14 -301 1 -306 6 -2 11 -19 11 -38 0 -19 4 -34 10 -34 5 0 13
-18 16 -40 4 -22 10 -40 15 -40 5 0 9 -8 9 -18 0 -22 22 -72 33 -72 4 0 7 -6
7 -13 0 -7 15 -28 34 -46 19 -18 32 -40 29 -47 -5 -13 18 -44 33 -44 4 0 33
-24 64 -54 47 -45 61 -53 83 -49 22 4 27 2 27 -16 0 -11 5 -21 10 -21 6 0 10
-4 10 -9 0 -10 -102 -2 -115 10 -5 5 -19 9 -31 9 -12 0 -24 5 -26 12 -3 7 -32
14 -76 16 -40 2 -72 8 -72 13 0 5 -11 9 -24 9 -13 0 -29 7 -36 15 -7 8 -18 15
-25 15 -6 0 -20 9 -30 20 -10 11 -24 20 -32 20 -7 0 -13 5 -13 10 0 6 -7 10
-15 10 -8 0 -25 11 -37 25 -12 14 -32 25 -44 25 -12 0 -31 11 -42 25 -13 16
-30 25 -49 25 -28 0 -83 43 -83 66 0 5 -18 17 -39 26 -36 16 -60 43 -77 90 -3
9 -18 18 -32 20 -16 2 -31 13 -38 26 -7 13 -28 41 -48 61 -20 20 -36 42 -36
49 0 7 -4 12 -10 12 -5 0 -10 8 -10 18 0 9 -9 23 -20 30 -11 7 -20 18 -20 25
0 8 -11 24 -24 37 -14 12 -28 36 -32 53 -8 38 -23 66 -46 88 -10 9 -18 19 -18
23 0 14 -35 86 -42 86 -5 0 -8 31 -8 69 0 49 -4 72 -15 81 -8 7 -15 21 -15 31
0 10 -4 21 -10 24 -5 3 -10 23 -10 44 0 22 -6 44 -15 51 -9 7 -15 29 -15 51 0
22 -4 39 -10 39 -14 0 -14 462 0 476 5 5 13 39 16 74 11 108 29 108 32 2 1
-51 7 -92 12 -92z m1143 157 c29 -31 33 -51 24 -115 -13 -101 -38 -114 -99
-55 -31 30 -38 44 -38 74 0 21 5 41 10 44 6 4 10 12 9 18 -1 7 1 20 5 30 10
21 71 24 89 4z m-690 -91 c9 -7 17 -18 17 -25 0 -14 22 -54 35 -63 6 -4 2 -8
-8 -8 -20 0 -56 -37 -57 -57 0 -22 -55 -15 -79 11 -19 20 -22 33 -19 82 2 49
6 59 20 56 9 -1 19 2 23 8 9 14 47 12 68 -4z m386 -62 c-9 -11 -15 -12 -25 -3
-19 16 -17 29 9 57 l22 24 3 -32 c2 -17 -2 -38 -9 -46z m-140 15 c17 -17 31
-37 31 -45 0 -8 5 -14 10 -14 6 0 10 -9 10 -20 0 -11 -4 -20 -10 -20 -5 0 -10
-11 -10 -25 0 -22 -4 -25 -40 -25 -29 0 -40 4 -40 15 0 8 -6 15 -13 15 -8 0
-24 11 -37 25 -18 19 -21 27 -11 39 8 10 9 16 1 21 -18 11 -11 21 25 35 19 8
35 17 35 22 0 16 19 7 49 -23z m605 -59 c67 0 73 -89 10 -150 -23 -22 -38 -31
-41 -22 -3 6 -11 12 -19 12 -25 0 -74 63 -74 95 0 8 9 20 20 27 11 7 20 18 20
25 0 7 9 13 19 13 11 0 23 5 27 12 6 9 9 9 12 0 2 -7 14 -12 26 -12z m-258
-100 c-3 -36 -5 -68 -5 -72 -1 -14 -72 -8 -87 6 -8 8 -14 23 -14 34 0 11 -7
25 -15 32 -21 18 -19 29 14 61 35 33 69 40 94 20 15 -13 17 -26 13 -81z m1154
5 c0 -43 21 -82 69 -130 23 -21 41 -44 41 -51 0 -6 21 -14 47 -17 26 -3 49
-10 51 -16 5 -15 164 -15 180 1 9 9 12 8 12 -4 0 -8 -7 -21 -15 -28 -33 -27
-110 -60 -141 -60 -18 0 -34 -5 -36 -11 -5 -14 -287 -26 -315 -14 -10 5 -26 7
-35 6 -10 -1 -18 3 -18 8 0 6 -16 11 -35 11 -19 0 -35 5 -35 10 0 6 -8 10 -18
10 -26 0 -79 28 -94 49 -7 10 -24 21 -38 26 -25 7 -140 112 -140 128 0 5 -16
23 -35 41 -38 36 -48 63 -17 47 9 -5 34 -18 55 -28 66 -31 77 -37 77 -45 0 -5
6 -8 14 -8 7 0 19 -6 25 -14 14 -17 141 -22 141 -5 0 6 6 9 14 6 16 -6 66 13
66 26 0 4 11 7 25 7 14 0 25 5 25 12 0 7 21 34 47 60 44 45 48 47 65 31 10 -9
18 -30 18 -48z m-660 31 c0 -7 7 -19 15 -26 8 -7 15 -21 15 -32 0 -11 20 -40
44 -63 25 -23 43 -45 41 -47 -3 -2 11 -20 30 -38 19 -19 35 -40 35 -47 0 -18
-106 -18 -113 0 -3 10 -9 10 -26 0 -11 -7 -36 -13 -54 -13 -18 0 -37 -4 -43
-9 -13 -13 -94 -25 -94 -14 0 6 3 13 8 17 4 4 7 12 7 17 0 5 11 15 25 22 18 9
28 25 34 55 7 30 15 42 28 42 10 0 18 5 18 10 0 6 -5 10 -12 10 -9 0 -9 3 0
12 7 7 12 24 12 38 0 14 5 31 12 38 8 8 8 15 -2 27 -10 12 -10 15 4 15 9 0 16
-6 16 -14z m-1015 -76 c3 -5 15 -10 26 -10 10 0 19 -6 19 -13 0 -7 9 -19 20
-27 23 -16 25 -44 8 -82 -14 -30 -72 -44 -123 -30 -56 16 -89 116 -42 127 13
4 30 15 37 26 15 20 45 25 55 9z m890 -430 c3 -5 17 -10 31 -10 15 0 24 -6 24
-15 0 -11 12 -15 50 -15 44 0 50 -2 50 -21 0 -12 16 -37 35 -56 19 -19 35 -40
35 -48 0 -8 5 -15 10 -15 5 0 9 -3 8 -7 0 -5 2 -16 7 -26 4 -10 2 -23 -5 -32
-6 -8 -10 -30 -9 -49 2 -19 0 -38 -4 -42 -4 -4 -7 -18 -7 -31 0 -12 -4 -23
-10 -23 -5 0 -10 -6 -10 -13 0 -7 -10 -23 -23 -37 -13 -14 -26 -33 -30 -43 -4
-9 -15 -20 -24 -24 -10 -4 -21 -11 -25 -17 -3 -5 -58 -12 -122 -14 -100 -4
-117 -2 -122 12 -3 9 -12 16 -20 16 -16 0 -95 76 -111 108 -7 13 -13 33 -13
43 0 11 -6 19 -12 20 -10 0 -10 2 0 6 17 7 15 60 -3 67 -8 3 -15 16 -15 29 0
14 7 30 15 37 8 7 15 23 15 36 0 13 4 24 9 24 7 0 15 19 21 50 3 13 36 42 64
56 17 8 55 18 84 21 29 3 55 10 58 14 7 12 41 11 49 -1z m645 -73 c29 -7 55
-21 70 -37 8 -10 26 -21 40 -25 39 -12 70 -45 70 -76 0 -15 5 -31 10 -34 6 -4
8 -10 5 -14 -2 -5 4 -16 15 -26 16 -15 20 -31 20 -86 0 -37 -4 -70 -9 -73 -5
-3 -12 -17 -15 -31 -8 -33 -79 -102 -134 -132 -27 -14 -60 -23 -88 -23 -28 0
-44 -4 -45 -12 0 -10 -2 -10 -6 0 -2 6 -12 12 -21 12 -10 0 -23 9 -30 21 -7
12 -16 18 -19 15 -4 -3 -17 4 -30 16 -16 15 -20 25 -13 33 8 9 1 12 -28 11
-47 -1 -72 21 -72 62 0 17 -6 32 -15 36 -17 6 -21 76 -5 92 5 5 12 43 16 84 5
61 11 80 32 103 14 15 31 27 37 27 7 0 20 9 30 20 10 11 24 20 32 20 7 0 13 4
13 9 0 18 79 23 140 8z m-365 -557 c3 -5 24 -10 46 -10 26 0 42 -5 45 -15 4
-8 12 -15 20 -15 7 0 27 -13 44 -30 27 -27 30 -35 30 -95 0 -36 3 -65 8 -65 4
0 7 -20 7 -45 0 -25 -3 -45 -7 -45 -5 0 -8 -20 -8 -44 0 -42 -16 -63 -44 -57
-14 3 -46 -31 -46 -49 0 -29 -28 -43 -80 -42 -27 0 -52 -3 -55 -9 -9 -13 -107
-11 -137 3 -15 7 -29 21 -32 30 -2 10 -12 21 -23 24 -10 4 -35 23 -55 42 -29
28 -38 44 -38 69 0 18 -4 33 -10 33 -6 0 -10 30 -10 69 0 39 5 73 10 76 6 3
10 14 10 24 0 10 9 21 21 24 12 3 20 13 19 24 -5 51 50 93 124 93 19 0 38 5
41 10 3 6 30 10 60 10 30 0 57 -4 60 -10z"/>
<path d="M3890 1115 c0 -9 5 -15 11 -13 6 2 11 8 11 13 0 5 -5 11 -11 13 -6 2
-11 -4 -11 -13z"/>
</g>
</svg>
